<?xml version="1.0" encoding="UTF-8" standalone="no"?>
<svg
   viewBox="0 0 512 512"
   version="1.1"
   id="svg4"
   sodipodi:docname="icon.svg"
   inkscape:export-filename="icon-256x256.png"
   inkscape:export-xdpi="48"
   inkscape:export-ydpi="48"
   inkscape:version="1.2.2 (b0a8486541, 2022-12-01)"
   xmlns:inkscape="http://www.inkscape.org/namespaces/inkscape"
   xmlns:sodipodi="http://sodipodi.sourceforge.net/DTD/sodipodi-0.dtd"
   xmlns="http://www.w3.org/2000/svg"
   xmlns:svg="http://www.w3.org/2000/svg">
  <defs
     id="defs8" />
  <sodipodi:namedview
     id="namedview6"
     pagecolor="#ffffff"
     bordercolor="#666666"
     borderopacity="1.0"
     inkscape:showpageshadow="2"
     inkscape:pageopacity="0.0"
     inkscape:pagecheckerboard="true"
     inkscape:deskcolor="#d1d1d1"
     showgrid="false"
     inkscape:zoom="2.0058594"
     inkscape:cx="185.95521"
     inkscape:cy="255.75073"
     inkscape:window-width="3840"
     inkscape:window-height="2050"
     inkscape:window-x="0"
     inkscape:window-y="0"
     inkscape:window-maximized="1"
     inkscape:current-layer="svg4" />
  <rect
     style="display:inline;fill:#0680bf;fill-opacity:1;fill-rule:evenodd;stroke:none;stroke-width:846.966;stroke-linecap:round;stroke-linejoin:round;stroke-dasharray:none;paint-order:fill markers stroke"
     id="rect1732"
     width="512"
     height="512"
     x="0"
     y="0"
     inkscape:label="bg" />
  <circle
     style="display:inline;fill:#ffffff;fill-opacity:1;fill-rule:evenodd;stroke:none;stroke-width:31.6246;stroke-linecap:round;stroke-linejoin:round"
     id="path1623"
     cx="256"
     cy="256"
     r="236"
     inkscape:label="white" />
  <!--!Font Awesome Free 6.5.1 by @fontawesome - https://fontawesome.com License - https://fontawesome.com/license/free Copyright 2024 Fonticons, Inc.-->
  <path
     d="m 266.3,48.3 -33.8,25.3 c -5.4,4 -8.5,10.4 -8.5,17.1 v 9.1 c 0,6.8 5.5,12.3 12.3,12.3 2.4,0 4.8,-0.7 6.8,-2.1 l 41.8,-27.9 c 2,-1.3 4.4,-2.1 6.8,-2.1 h 1 c 6.2,0 11.3,5.1 11.3,11.3 0,3 -1.2,5.9 -3.3,8 l -19.9,19.9 C 275,125 267.9,129.4 260.1,132 l -26.5,8.8 c -5.8,1.9 -9.6,7.3 -9.6,13.4 0,3.7 -1.5,7.3 -4.1,10 L 202,182.1 c -6.4,6.4 -9.9,15 -9.9,24 v 4.3 c 0,16.4 13.6,29.7 29.9,29.7 11,0 21.2,-6.2 26.1,-16 l 4,-8.1 c 2.4,-4.8 7.4,-7.9 12.8,-7.9 4.5,0 8.7,2.1 11.4,5.7 l 16.3,21.7 c 2.1,2.9 5.5,4.5 9.1,4.5 8.4,0 13.9,-8.9 10.1,-16.4 l -1.1,-2.3 c -3.5,-7 0,-15.5 7.5,-18 l 21.2,-7.1 c 7.6,-2.5 12.7,-9.6 12.7,-17.6 0,-10.3 8.3,-18.6 18.6,-18.6 H 400 c 8.8,0 16,7.2 16,16 0,8.8 -7.2,16 -16,16 h -20.7 c -7.2,0 -14.2,2.9 -19.3,8 l -4.7,4.7 c -2.1,2.1 -3.3,5 -3.3,8 0,6.2 5.1,11.3 11.3,11.3 h 11.3 c 6,0 11.8,2.4 16,6.6 l 6.5,6.5 c 1.8,1.8 2.8,4.3 2.8,6.8 0,2.5 -1,5 -2.8,6.8 l -7.5,7.5 c -3.6,3.8 -5.6,8.7 -5.6,13.8 0,5.1 2,10 5.7,13.7 L 408,304 c 10.2,10.2 24.1,16 38.6,16 h 7.4 c 6.5,-20.2 10,-41.7 10,-64 C 464,144.6 376.4,53.6 266.3,48.3 Z m 172,307.9 c -3.7,-2.6 -8.2,-4.1 -13,-4.1 -6,0 -11.8,-2.4 -16,-6.6 L 396,332 c -7.7,-7.7 -18,-12 -28.9,-12 -9.7,0 -19.2,-3.5 -26.6,-9.8 L 314,287.4 C 302.4,277.5 287.6,272 272.3,272 h -20.9 c -12.6,0 -25,3.7 -35.5,10.7 L 188.5,301 C 170.7,312.9 160,332.9 160,354.3 v 3.2 c 0,17 6.7,33.3 18.7,45.3 l 16,16 c 8.5,8.5 20,13.3 32,13.3 H 248 c 13.3,0 24,10.7 24,24 0,2.5 0.4,5 1.1,7.3 71.3,-5.8 132.5,-47.6 165.2,-107.2 z M 0,256 a 256,256 0 1 1 512,0 256,256 0 1 1 -512,0 z M 187.3,100.7 c -6.2,-6.2 -16.4,-6.2 -22.6,0 l -32,32 c -6.2,6.2 -6.2,16.4 0,22.6 6.2,6.2 16.4,6.2 22.6,0 l 32,-32 c 6.2,-6.2 6.2,-16.4 0,-22.6 z"
     id="path2"
     style="display:inline;fill:#0680bf;fill-opacity:1"
     inkscape:label="shape" />
</svg>
